<?xml version="1.0" standalone="no"?>
<!DOCTYPE svg PUBLIC "-//W3C//DTD SVG 1.0//EN" "http://www.w3.org/TR/2001/REC-SVG-20010904/DTD/svg10.dtd">
<svg xmlns="http://www.w3.org/2000/svg" xmlns:xlink="http://www.w3.org/1999/xlink" id="body_1" width="31" height="23">

<g transform="matrix(0.023 0 0 0.023 3.9999995 -0)">
	<g>
		<g>
            <path d="M696.5 234.1L696.5 68.9C 696.5 42.600002 675 21 648.6 21L648.6 21L57.9 21C 31.6 21 10 42.5 10 68.9L10 68.9L10 100L10 724.2L10 745.8C 10 763.39996 20.4 780.1 35.5 788.1L35.5 788.1L399.5 976.5C 415.5 984.5 434.6 973.3 434.6 954.9L434.6 954.9L434.6 771.3L648.5 771.3C 674.8 771.3 696.4 749.8 696.4 723.39996L696.4 723.39996L696.4 461.6L600.60004 461.6L600.60004 651.6C 600.60004 665.19995 590.2 675.5 576.7 675.5L576.7 675.5L435.4 675.5L435.4 429.7L435.4 274L435.4 269.2C 435.4 251.6 425 234.90001 409.9 226.90001L409.9 226.90001L195.2 116.8L576.7 116.8C 590.3 116.8 600.60004 127.200005 600.60004 140.7L600.60004 140.7L600.60004 234.9L696.4 234.9L696.4 234.1L696.5 234.1z" stroke="none" fill="#000000" fill-rule="nonzero" />
            <path d="M819.4 155.9L975 311.5C 995 331.5 995 361 975 380.9L975 380.9L819.4 536.6C 799.4 556.6 769.10004 557.39996 749.2 537.39996C 730 518.19995 732.4 486.29996 750.8 467.19995L750.8 467.19995L821 397.79996L548.8 397.79996C 535.2 397.79996 521.7 392.19995 512.89996 381.79996C 490.59998 357.89996 496.09998 315.49994 524.89996 299.59998C 532.1 295.59998 540.89996 293.19998 548.8 293.19998L548.8 293.19998L821 293.19998C 821 293.19998 751.6 223.79999 750.8 223.79999C 732.39996 205.4 730 172.69998 749.2 154.4C 768.3 135.1 799.4 135.9 819.4 155.9z" stroke="none" fill="#000000" fill-rule="nonzero" />
		</g>
		<g>
		</g>
		<g>
		</g>
		<g>
		</g>
		<g>
		</g>
		<g>
		</g>
		<g>
		</g>
		<g>
		</g>
		<g>
		</g>
		<g>
		</g>
		<g>
		</g>
		<g>
		</g>
		<g>
		</g>
		<g>
		</g>
		<g>
		</g>
		<g>
		</g>
	</g>
</g>
</svg>